<svg width="63" height="57" viewBox="0 0 63 57" fill="none" xmlns="http://www.w3.org/2000/svg">
<g clip-path="url(#clip0_62_452)">
<path d="M24.293 20.0737C23.7971 20.0737 23.3946 20.4674 23.3946 20.9526C23.3946 21.4377 23.7971 21.8315 24.293 21.8315C24.789 21.8315 25.1915 21.4377 25.1915 20.9526C25.1915 20.4674 24.789 20.0737 24.293 20.0737Z" fill="black"/>
<path d="M32.3785 36.5084H29.6834V33.8718C29.6834 33.3865 29.2811 32.9929 28.7849 32.9929C28.2888 32.9929 27.8866 33.3865 27.8866 33.8718V36.5084H25.1915C24.6954 36.5084 24.293 36.9019 24.293 37.3872C24.293 37.8724 24.6954 38.2661 25.1915 38.2661H27.8866V40.9026C27.8866 41.388 28.2889 41.7815 28.7849 41.7815C29.281 41.7815 29.6834 41.388 29.6834 40.9026V38.2661H32.3785C32.8746 38.2661 33.277 37.8725 33.277 37.3872C33.277 36.9019 32.8747 36.5084 32.3785 36.5084Z" fill="black"/>
<path d="M56.6262 37.2994C54.6402 33.9344 50.249 32.7828 46.8086 34.726L43.1593 36.7871V29.155C43.1593 28.2115 42.8404 27.2752 42.261 26.5184L37.769 20.6596V18.1647C38.8146 17.8019 39.5658 16.8251 39.5658 15.6792V11.6365C39.5656 10.1827 38.3566 9 36.8705 9H20.6994C19.2133 9 18.0042 10.1827 18.0042 11.6365V15.6793C18.0042 16.825 18.7554 17.802 19.801 18.1648V20.6597L15.3087 26.5189C14.7296 27.2753 14.4106 28.2115 14.4106 29.155V46.1759C14.4106 48.5989 16.4257 50.5702 18.9026 50.5702H33.3406C35.355 53.8734 39.6986 54.9788 43.1034 53.0556L53.9957 46.9035C57.4057 44.9771 58.6221 40.6827 56.6262 37.2994ZM19.801 11.6365C19.801 11.1519 20.204 10.7576 20.6993 10.7576H36.8704C37.3658 10.7576 37.7689 11.1519 37.7689 11.6365V15.6793C37.7689 16.164 37.3658 16.5582 36.8704 16.5582H20.6994C20.204 16.5582 19.8011 16.1639 19.8011 15.6793L19.801 11.6365ZM16.7466 27.573L21.4181 21.4799C21.5347 21.3278 21.5978 21.1427 21.5978 20.9525V18.316H35.9721V20.0737H27.8866C27.3905 20.0737 26.9881 20.4673 26.9881 20.9526C26.9881 21.4379 27.3905 21.8315 27.8866 21.8315H36.4213L40.823 27.5727C41.1107 27.9484 41.2894 28.398 41.3434 28.8624H16.2266C16.2805 28.3979 16.4592 27.9483 16.7466 27.573ZM18.9027 48.8124C17.4165 48.8124 16.2075 47.6297 16.2075 46.1759V45.2883H32.5299C32.245 46.4278 32.2469 47.6449 32.5731 48.8125H18.9027V48.8124ZM33.2345 43.5393H16.2074V30.62H41.3624V37.8018L35.9162 40.8781C34.7806 41.5198 33.8628 42.4332 33.2345 43.5393ZM42.2052 51.5333C39.6269 52.9898 36.3323 52.1285 34.8426 49.6045C33.3457 47.0562 34.2528 43.8478 36.8148 42.4002L41.6913 39.6459L47.0816 48.779L42.2052 51.5333ZM53.0973 45.3814L48.6377 47.9002L43.2473 38.7669L47.7069 36.2483C50.2869 34.7912 53.5803 35.6541 55.0701 38.1781C56.5664 40.7148 55.6565 43.9356 53.0973 45.3814Z" fill="black"/>
</g>
<defs>
<clipPath id="clip0_62_452">
<rect width="46" height="45" fill="white" transform="translate(13 9)"/>
</clipPath>
</defs>
</svg>
