<svg width="53" height="57" viewBox="0 0 53 57" fill="none" xmlns="http://www.w3.org/2000/svg">
<path d="M45.6925 31.061V29.281C46.1429 29.281 46.5085 28.8826 46.5085 28.391V23.051C46.5085 22.5594 46.1429 22.161 45.6925 22.161H41.2865L41.1284 21.4924C40.7676 19.9634 40.2073 18.4988 39.4637 17.144L39.1373 16.5484L42.2656 13.1303C42.5805 12.7861 42.5805 12.2284 42.2656 11.8843L38.8004 8.09898C38.4804 7.76627 37.9778 7.76627 37.6578 8.09898L34.5237 11.5175L33.9781 11.1615C32.7341 10.3501 31.39 9.73888 29.9864 9.34498L29.3738 9.17115V4.36098C29.3738 3.86939 29.0085 3.47098 28.5578 3.47098H23.6622C23.2115 3.47098 22.8463 3.86939 22.8463 4.36098V9.16698L22.2334 9.33977C20.8316 9.73296 19.4888 10.3441 18.2461 11.1542L17.7001 11.5105L14.5671 8.09898C14.2467 7.76349 13.7409 7.76349 13.4206 8.09898L9.95446 11.8787C9.80211 12.0445 9.71637 12.2698 9.71637 12.5045C9.71637 12.7395 9.80211 12.9644 9.95446 13.1303L13.0885 16.5484L12.7621 17.144C12.0188 18.4988 11.4582 19.9634 11.0977 21.4924L10.9377 22.161H6.52752C6.07685 22.161 5.71159 22.5594 5.71159 23.051V28.391C5.71159 28.8826 6.07685 29.281 6.52752 29.281V31.061C5.17581 31.061 4.07971 29.8654 4.07971 28.391V23.051C4.07971 21.5766 5.17581 20.381 6.52752 20.381H9.6845C10.0211 19.1503 10.4762 17.962 11.0423 16.8363L8.79845 14.3888C8.33948 13.8892 8.08163 13.2113 8.08163 12.5045C8.08163 11.7977 8.33948 11.1198 8.79845 10.6205L12.2662 6.83803C13.2322 5.82948 14.7554 5.82948 15.7215 6.83803L17.9647 9.28449C18.9967 8.6674 20.0864 8.17199 21.2144 7.80521V4.36098C21.2144 2.88657 22.3105 1.69098 23.6622 1.69098H28.5578C29.9096 1.69098 31.0057 2.88657 31.0057 4.36098V7.80521C32.1339 8.17199 33.223 8.66844 34.2554 9.28553L36.4992 6.83803C37.4656 5.82948 38.9885 5.82948 39.9548 6.83803L43.4219 10.6195C43.8806 11.1191 44.1381 11.7963 44.1381 12.5034C44.1381 13.2106 43.8806 13.8885 43.4219 14.3877L41.1781 16.8352C41.7438 17.9616 42.1987 19.1503 42.5356 20.381H45.6925C47.0442 20.381 48.1403 21.5766 48.1403 23.051V28.391C48.1403 29.8654 47.0442 31.061 45.6925 31.061Z" fill="black"/>
<path d="M37.5331 25.721H35.9013C35.9013 19.8227 31.5175 15.041 26.11 15.041C20.7025 15.041 16.3188 19.8227 16.3188 25.721H14.6869C14.6869 18.8395 19.8012 13.261 26.11 13.261C32.4186 13.261 37.5331 18.8395 37.5331 25.721Z" fill="black"/>
<path d="M26.11 32.841C23.4062 32.841 21.2144 30.4498 21.2144 27.501C21.2144 24.5518 23.4062 22.161 26.11 22.161C28.814 22.161 31.0056 24.5518 31.0056 27.501C31.0027 30.4491 28.8128 32.8379 26.11 32.841ZM26.11 23.941C24.3076 23.941 22.8462 25.535 22.8462 27.501C22.8462 29.467 24.3076 31.061 26.11 31.061C27.9124 31.061 29.3737 29.467 29.3737 27.501C29.3737 25.535 27.9124 23.941 26.11 23.941Z" fill="black"/>
<path d="M39.981 36.401C37.2772 36.401 35.0853 34.0098 35.0853 31.061C35.0853 28.1118 37.2772 25.721 39.981 25.721C42.6847 25.721 44.8766 28.1118 44.8766 31.061C44.8737 34.0091 42.6837 36.3979 39.981 36.401ZM39.981 27.501C38.1786 27.501 36.7172 29.095 36.7172 31.061C36.7172 33.027 38.1786 34.621 39.981 34.621C41.7833 34.621 43.2447 33.027 43.2447 31.061C43.2447 29.095 41.7833 27.501 39.981 27.501Z" fill="black"/>
<path d="M12.2391 36.401C9.53532 36.401 7.34344 34.0098 7.34344 31.061C7.34344 28.1118 9.53532 25.721 12.2391 25.721C14.9431 25.721 17.1347 28.1118 17.1347 31.061C17.1318 34.0091 14.9419 36.3979 12.2391 36.401ZM12.2391 27.501C10.4367 27.501 8.97532 29.095 8.97532 31.061C8.97532 33.027 10.4367 34.621 12.2391 34.621C14.0415 34.621 15.5028 33.027 15.5028 31.061C15.5028 29.095 14.0415 27.501 12.2391 27.501Z" fill="black"/>
<path d="M47.378 38.6844C46.162 37.7729 44.7204 37.2865 43.2447 37.291H36.7172C36.3204 37.2948 35.9242 37.3341 35.5331 37.4082C35.0111 36.5175 34.3319 35.7492 33.5351 35.1467C33.4155 35.0483 33.29 34.9589 33.159 34.88C32.0176 34.1259 30.708 33.7289 29.3738 33.731H22.8463C20.351 33.7213 18.0259 35.1102 16.6891 37.4082C16.2971 37.3341 15.9003 37.2948 15.5028 37.291H8.97534C7.50091 37.2865 6.05963 37.7722 4.84433 38.6827C2.83572 40.1734 1.63317 42.6512 1.6319 45.301V48.861C1.63477 51.2911 2.93102 53.498 4.95461 54.516C5.7017 54.8998 6.51796 55.0962 7.34346 55.091H15.5028V53.311H8.1594V43.521H6.52752V53.2217C6.22027 53.1546 5.92194 53.0461 5.63892 52.8997C4.1935 52.1728 3.26696 50.5969 3.26377 48.861V45.301C3.26568 43.2387 4.20242 41.311 5.76545 40.1512C6.70983 39.444 7.82952 39.0675 8.97534 39.071H15.5028C15.6466 39.071 15.7852 39.0877 15.9255 39.0981C15.6495 39.9471 15.5063 40.8406 15.5028 41.741V50.641C15.5057 53.0975 17.3307 55.0879 19.5825 55.091H22.0303V40.851H20.3985V53.311H19.5825C18.2308 53.311 17.1347 52.1154 17.1347 50.641V41.741C17.1347 38.2999 19.6922 35.511 22.8463 35.511H29.3738C30.4237 35.5117 31.4525 35.8288 32.3478 36.4267C32.4307 36.4761 32.5104 36.5317 32.5859 36.5929C33.3505 37.1641 33.9781 37.9272 34.4154 38.8179C34.8549 39.7176 35.0853 40.7213 35.0853 41.741V50.641C35.0853 52.1154 33.9892 53.311 32.6375 53.311H31.8216V40.851H30.1897V55.091H32.6375C34.8896 55.0879 36.7143 53.0975 36.7172 50.641V41.741C36.7134 40.8406 36.5709 39.9474 36.2952 39.0981C36.4358 39.0877 36.5744 39.071 36.7172 39.071H43.2447C44.3912 39.0675 45.5118 39.4451 46.4568 40.1529C48.0186 41.3134 48.9541 43.2398 48.9563 45.301V48.861C48.9534 50.6031 48.0199 52.1836 46.5674 52.9067C46.2885 53.0506 45.9947 53.1563 45.6925 53.2217V43.521H44.0607V53.311H36.7172V55.091H44.8766C45.6973 55.0966 46.5088 54.9026 47.2517 54.5229C49.282 53.5081 50.585 51.297 50.5882 48.861V45.301C50.5869 42.6522 49.3853 40.1755 47.378 38.6844Z" fill="black"/>
<path d="M22.8463 53.311H29.3738V55.091H22.8463V53.311Z" fill="black"/>
</svg>
