<svg width="44" height="42" viewBox="0 0 44 42" fill="none" xmlns="http://www.w3.org/2000/svg">
<g clip-path="url(#clip0_55_235)">
<path d="M28.3871 29.0225V24.3871H29.8065V23.0323H21.2903V24.3871H22.7097V29.0225C22.227 29.224 21.7879 29.4866 21.3728 29.7773L17.0323 22.1822V18.9677H18.4516V17.6129H17.0323V15.5806C17.0323 15.2069 16.7152 14.9032 16.3226 14.9032H15.6129V12.871C15.6129 12.4972 15.2958 12.1935 14.9032 12.1935H10.6452C10.2526 12.1935 9.93548 12.4972 9.93548 12.871V14.9032H9.22581C8.8332 14.9032 8.51613 15.2069 8.51613 15.5806V17.6129H7.09678V18.9677H8.51613V22.1822L0.432806 36.3273C0.149698 36.8231 0 37.3841 0 37.949V38.6129C0 40.4804 1.59192 42 3.54839 42H22C22.5032 42 22.9969 41.8928 23.4519 41.698C24.1148 41.8935 24.819 42 25.5484 42C29.4617 42 32.6452 38.9612 32.6452 35.2258C32.6452 32.5277 30.9534 30.0929 28.3871 29.0225ZM26.9677 24.3871V25.7419H24.129V24.3871H26.9677ZM23.6564 30.122C23.9395 30.0261 24.129 29.7704 24.129 29.4833V27.0968H26.9677V29.4833C26.9677 29.7704 27.1573 30.0261 27.4404 30.122C29.2458 30.7326 30.5636 32.1645 31.03 33.8776C30.4898 33.8954 29.9832 34.0992 29.5985 34.4664L29.0108 35.0273C28.8781 35.1534 28.6959 35.2258 28.5091 35.2258H28.2651C28.0784 35.2258 27.8954 35.1534 27.7634 35.0273L27.1757 34.4664C26.774 34.0823 26.239 33.871 25.6704 33.871H25.4264C24.8578 33.871 24.3227 34.0823 23.9211 34.4664L23.3334 35.0273C23.2007 35.1534 23.0184 35.2258 22.8317 35.2258H22.5877C22.4009 35.2258 22.218 35.1534 22.0859 35.0273L21.4982 34.4664C21.1143 34.0992 20.6077 33.8961 20.0668 33.8776C20.5332 32.1645 21.851 30.7319 23.6564 30.122ZM11.3548 13.5484H14.1936V14.9032H11.3548V13.5484ZM9.93548 16.2581H15.6129V17.6129H9.93548V16.2581ZM9.84886 22.6793C9.90568 22.5798 9.93548 22.468 9.93548 22.3548V18.9677H15.6129V22.3548C15.6129 22.468 15.6427 22.5798 15.6995 22.6793L18.2295 27.1064C17.6993 27.1298 17.2027 27.3313 16.8243 27.6922L16.2366 28.2531C16.1039 28.3792 15.9217 28.4516 15.7349 28.4516H15.4909C15.3042 28.4516 15.1212 28.3792 14.9892 28.2531L14.4015 27.6922C13.9998 27.3081 13.4648 27.0968 12.8962 27.0968H12.6522C12.0836 27.0968 11.5485 27.3081 11.1469 27.6922L10.5592 28.2531C10.4265 28.3792 10.2442 28.4516 10.0575 28.4516H9.81351C9.62673 28.4516 9.44377 28.3792 9.31175 28.2531L8.72404 27.6922C8.34668 27.3313 7.84907 27.1298 7.3189 27.1064L9.84886 22.6793ZM3.54839 40.6452C2.37472 40.6452 1.41936 39.7332 1.41936 38.6129V37.949C1.41936 37.6103 1.50945 37.2729 1.67925 36.9756L6.55031 28.4516H7.21875C7.40553 28.4516 7.58849 28.524 7.72052 28.6501L8.30822 29.2111C8.70984 29.5951 9.24487 29.8064 9.81351 29.8064H10.0575C10.6261 29.8064 11.1611 29.5951 11.5628 29.2111L12.1505 28.6501C12.2832 28.524 12.4654 28.4516 12.6522 28.4516H12.8962C13.0829 28.4516 13.2659 28.524 13.3979 28.6501L13.9856 29.2111C14.3873 29.5951 14.9223 29.8064 15.4909 29.8064H15.7349C16.3035 29.8064 16.8386 29.5951 17.2402 29.2111L17.8279 28.6501C17.9606 28.524 18.1429 28.4516 18.3296 28.4516H18.9981L20.2826 30.6992C19.1336 31.9174 18.4516 33.5174 18.4516 35.2258C18.4516 37.443 19.5785 39.4087 21.3087 40.6452H3.54839ZM25.5484 40.6452C22.4179 40.6452 19.871 38.214 19.871 35.2258H19.9929C20.1797 35.2258 20.3627 35.2982 20.4947 35.4243L21.0824 35.9853C21.484 36.3693 22.0191 36.5806 22.5877 36.5806H22.8317C23.4003 36.5806 23.9353 36.3693 24.3369 35.9853L24.9247 35.4243C25.0574 35.2982 25.2396 35.2258 25.4264 35.2258H25.6704C25.8571 35.2258 26.0401 35.2982 26.1721 35.4243L26.7598 35.9853C27.1615 36.3693 27.6965 36.5806 28.2651 36.5806H28.5091C29.0777 36.5806 29.6127 36.3693 30.0144 35.9853L30.6021 35.4243C30.7348 35.2982 30.9171 35.2258 31.1038 35.2258H31.2258C31.2258 38.214 28.6789 40.6452 25.5484 40.6452Z" fill="black"/>
<path d="M4.96778 35.2258C3.79411 35.2258 2.83875 36.1378 2.83875 37.2581C2.83875 38.3784 3.79411 39.2903 4.96778 39.2903C6.14145 39.2903 7.09681 38.3784 7.09681 37.2581C7.09681 36.1378 6.14145 35.2258 4.96778 35.2258ZM4.96778 37.9355C4.57621 37.9355 4.2581 37.6312 4.2581 37.2581C4.2581 36.885 4.57621 36.5807 4.96778 36.5807C5.35935 36.5807 5.67745 36.885 5.67745 37.2581C5.67745 37.6312 5.35935 37.9355 4.96778 37.9355Z" fill="black"/>
<path d="M10.6451 33.871C9.47148 33.871 8.51611 34.7829 8.51611 35.9032C8.51611 37.0236 9.47148 37.9355 10.6451 37.9355C11.8188 37.9355 12.7742 37.0236 12.7742 35.9032C12.7742 34.7829 11.8188 33.871 10.6451 33.871ZM10.6451 36.5806C10.2536 36.5806 9.93547 36.2763 9.93547 35.9032C9.93547 35.5301 10.2536 35.2258 10.6451 35.2258C11.0367 35.2258 11.3548 35.5301 11.3548 35.9032C11.3548 36.2763 11.0367 36.5806 10.6451 36.5806Z" fill="black"/>
<path d="M15.6129 31.1613C14.4392 31.1613 13.4839 32.0733 13.4839 33.1936C13.4839 34.3139 14.4392 35.2258 15.6129 35.2258C16.7866 35.2258 17.742 34.3139 17.742 33.1936C17.742 32.0733 16.7866 31.1613 15.6129 31.1613ZM15.6129 33.871C15.2213 33.871 14.9032 33.5667 14.9032 33.1936C14.9032 32.8205 15.2213 32.5162 15.6129 32.5162C16.0045 32.5162 16.3226 32.8205 16.3226 33.1936C16.3226 33.5667 16.0045 33.871 15.6129 33.871Z" fill="black"/>
<path d="M16.3226 37.9355H17.742V39.2903H16.3226V37.9355Z" fill="black"/>
<path d="M14.9032 36.5806H16.3226V37.9355H14.9032V36.5806Z" fill="black"/>
<path d="M13.4839 37.9355H14.9032V39.2903H13.4839V37.9355Z" fill="black"/>
<path d="M7.8064 31.8387H9.22575V33.1935H7.8064V31.8387Z" fill="black"/>
<path d="M43.2903 9.48389H33.3548C32.9622 9.48389 32.6451 9.78753 32.6451 10.1613V12.871C32.6451 13.2448 32.9622 13.5484 33.3548 13.5484H34.0645V37.9355C34.0645 40.1771 35.9742 42 38.3226 42C40.6709 42 42.5806 40.1771 42.5806 37.9355V13.5484H43.2903C43.6829 13.5484 44 13.2448 44 12.871V10.1613C44 9.78753 43.6829 9.48389 43.2903 9.48389ZM38.3226 40.6452C36.757 40.6452 35.4839 39.4299 35.4839 37.9355V23.0323H41.1613V37.9355C41.1613 39.4299 39.8881 40.6452 38.3226 40.6452ZM41.1613 21.6774H35.4839V13.5484H41.1613V21.6774ZM42.5806 12.1936H34.0645V10.8387H42.5806V12.1936Z" fill="black"/>
<path d="M36.9032 37.2581H38.3226V38.6129H36.9032V37.2581Z" fill="black"/>
<path d="M38.3226 34.5484H39.742V35.9032H38.3226V34.5484Z" fill="black"/>
<path d="M36.9032 31.8387H38.3226V33.1935H36.9032V31.8387Z" fill="black"/>
<path d="M38.3226 29.129H39.742V30.4839H38.3226V29.129Z" fill="black"/>
<path d="M36.9032 26.4194H38.3226V27.7742H36.9032V26.4194Z" fill="black"/>
<path d="M11.3548 7.45161C11.3548 7.0785 11.6729 6.77419 12.0645 6.77419H14.1935V10.8387H15.6128V6.77419H22.7096V21.6774H24.129V6.77419H26.258C26.6496 6.77419 26.9677 7.0785 26.9677 7.45161V21.6774H28.387V7.45161C28.387 6.33129 27.4317 5.41936 26.258 5.41936H24.129V4.74194C24.129 4.36883 24.4471 4.06452 24.8387 4.06452H33.3548C33.7464 4.06452 34.0645 4.36883 34.0645 4.74194V8.12903H35.4838V4.74194C35.4838 3.62161 34.5285 2.70968 33.3548 2.70968H24.8387C23.665 2.70968 22.7096 3.62161 22.7096 4.74194V5.41936H15.6128V2.03226C15.6128 1.65915 15.931 1.35484 16.3225 1.35484H40.4516C40.8431 1.35484 41.1612 1.65915 41.1612 2.03226V8.12903H42.5806V2.03226C42.5806 0.911936 41.6252 0 40.4516 0H16.3225C15.1489 0 14.1935 0.911936 14.1935 2.03226V5.41936H12.0645C10.8908 5.41936 9.93542 6.33129 9.93542 7.45161V10.8387H11.3548V7.45161Z" fill="black"/>
<path d="M4.25806 10.1613C4.25806 11.2816 5.21342 12.1935 6.38709 12.1935C7.56076 12.1935 8.51612 11.2816 8.51612 10.1613C8.51612 9.04096 7.56076 8.12903 6.38709 8.12903C5.21342 8.12903 4.25806 9.04096 4.25806 10.1613ZM7.09677 10.1613C7.09677 10.5344 6.77866 10.8387 6.38709 10.8387C5.99552 10.8387 5.67741 10.5344 5.67741 10.1613C5.67741 9.78818 5.99552 9.48387 6.38709 9.48387C6.77866 9.48387 7.09677 9.78818 7.09677 10.1613Z" fill="black"/>
<path d="M3.54839 6.77419C5.50485 6.77419 7.09677 5.25463 7.09677 3.3871C7.09677 1.51956 5.50485 0 3.54839 0C1.59192 0 0 1.51956 0 3.3871C0 5.25463 1.59192 6.77419 3.54839 6.77419ZM3.54839 1.35484C4.72206 1.35484 5.67742 2.26678 5.67742 3.3871C5.67742 4.50742 4.72206 5.41936 3.54839 5.41936C2.37472 5.41936 1.41935 4.50742 1.41935 3.3871C1.41935 2.26678 2.37472 1.35484 3.54839 1.35484Z" fill="black"/>
<path d="M2.83871 18.9678C4.4043 18.9678 5.67742 17.7525 5.67742 16.2581C5.67742 14.7637 4.4043 13.5484 2.83871 13.5484C1.27312 13.5484 0 14.7637 0 16.2581C0 17.7525 1.27312 18.9678 2.83871 18.9678ZM2.83871 14.9032C3.6215 14.9032 4.25806 15.5109 4.25806 16.2581C4.25806 17.0053 3.6215 17.6129 2.83871 17.6129C2.05592 17.6129 1.41935 17.0053 1.41935 16.2581C1.41935 15.5109 2.05592 14.9032 2.83871 14.9032Z" fill="black"/>
</g>
<defs>
<clipPath id="clip0_55_235">
<rect width="44" height="42" fill="white"/>
</clipPath>
</defs>
</svg>
