<svg width="57" height="57" viewBox="0 0 57 57" fill="none" xmlns="http://www.w3.org/2000/svg">
<path d="M55.2985 27.0226L52.8329 26.0479V24.498C52.8676 14.9854 46.339 6.49804 36.5716 3.35887V1.17455C36.5716 0.526179 35.9993 0 35.2944 0H21.6259C20.9211 0 20.3488 0.526179 20.3488 1.17455V3.37041C10.5814 6.50958 4.05281 14.9969 4.08744 24.5095V26.0714L1.64744 27.0226C1.17468 27.2061 0.868164 27.6324 0.868164 28.1032V34.2689C0.868164 34.9169 1.4405 35.4431 2.14574 35.4431H3.80647V37.7922C3.80647 38.4401 4.37837 38.9663 5.08362 38.9663H9.66966C10.1052 40.4366 10.7451 41.8508 11.5728 43.1706L8.32844 46.1537C7.83273 46.6115 7.83273 47.3514 8.32844 47.8095L13.7574 52.8006C14.2553 53.2564 15.0601 53.2564 15.5584 52.8006L18.8028 49.8179C20.2349 50.5789 21.7679 51.166 23.3633 51.5676V55.7838C23.3633 56.4317 23.9356 56.9579 24.6409 56.9579H32.305C33.0103 56.9579 33.5826 56.4317 33.5826 55.7838V51.5676C35.1819 51.1672 36.7197 50.5801 38.1557 49.8179L41.4005 52.8006C41.8984 53.2564 42.7032 53.2564 43.2015 52.8006L48.6305 47.8095C49.1262 47.3514 49.1262 46.6115 48.6305 46.1537L45.3856 43.1706C46.2134 41.8508 46.8537 40.4366 47.2892 38.9663H51.8749C52.5801 38.9663 53.1524 38.4401 53.1524 37.7922V35.4431H54.8132C55.5184 35.4431 56.0903 34.9169 56.0903 34.2689V28.1032C56.0877 27.6288 55.7751 27.2025 55.2985 27.0226ZM22.878 2.36064H34.0169V21.9845H22.9035L22.878 2.36064ZM50.6103 36.6176H46.3567C45.7437 36.6045 45.2081 36.9945 45.0791 37.545C44.6488 39.3842 43.857 41.1351 42.7417 42.7125C42.4131 43.1766 42.4837 43.7883 42.9075 44.1804L45.9606 46.9872L42.3071 50.3226L39.254 47.5157C38.8276 47.1261 38.1622 47.0612 37.6574 47.3633C35.9417 48.3882 34.0372 49.1166 32.0366 49.5122C31.4375 49.6308 31.0136 50.1232 31.0275 50.6868V54.6442H25.918V50.6513C25.9323 50.0877 25.508 49.5958 24.9088 49.4772C22.9087 49.0823 21.0038 48.3544 19.2885 47.3279C18.7837 47.0262 18.1183 47.0907 17.6914 47.4807L14.6384 50.2875L11.0234 46.9637L14.0765 44.1569C14.5007 43.7648 14.5709 43.1531 14.2427 42.689C13.1171 41.1212 12.3123 39.3783 11.8668 37.545C11.7373 36.9945 11.2022 36.6045 10.5892 36.6176H6.33566V35.4431H18.011C18.711 40.7491 23.9573 44.5282 29.7287 43.8834C34.5368 43.3469 38.3267 39.8635 38.9094 35.4431H50.5977L50.6103 36.6176ZM20.6168 35.4431H36.3417C35.6391 39.4384 31.5461 42.1537 27.2008 41.5077C23.8105 41.0038 21.1523 38.56 20.6042 35.4431H20.6168ZM53.5486 33.0944H3.41034V28.8782L5.87545 27.9034C6.34821 27.7203 6.65473 27.2941 6.65473 26.8228V24.4741C6.62659 16.2722 12.0581 8.89012 20.3488 5.86001V23.1591C20.3488 23.807 20.9207 24.3332 21.6259 24.3332H35.3196C36.0248 24.3332 36.5971 23.807 36.5971 23.1591V5.86001C44.9016 8.88893 50.3397 16.2853 50.3037 24.4976V26.8467C50.3037 27.3175 50.6103 27.7438 51.083 27.9269L53.5481 28.9017V33.0944H53.5486Z" fill="black"/>
</svg>
